_________________________  Visit us at _________________________
  
http://p2pdl.com  ____________________________  http://p2pdl.com


Last Dance 2012 BRRip 720p x264 AAC - PRiSTiNE

Genre: Drama
Plot: (Not Available)
Director: David Pulbrook
Stars: Julia Blake, Danielle Carter, Nicole Chamoun
Rated: N/A

Info: 
http://www.imdb.com/title/tt2294705/


General
Complete name                  : Last Dance 2012 BRRip 720p x264 AAC - PRiSTiNE.mp4
Format                         : MPEG-4
Format profile                 : Base Media
Codec ID                       : isom
File size                      : 502 MiB
Duration                       : 1h 28mn
Overall bit rate mode          : Variable
Overall bit rate               : 792 Kbps

Source                         : 720p BluRay pFa (Thanks)

Video
Format                         : AVC
Format/Info                    : Advanced Video Codec
Format profile                 : High@L4.1
Format settings, CABAC         : Yes
Format settings, ReFrames      : 8 frames
Bit rate                       : 709 Kbps
Width                          : 1 280 pixels
Height                         : 720 pixels
Display aspect ratio           : 16:9
Frame rate mode                : Constant
Frame rate                     : 24.000 fps
Scan type                      : Progressive
Bits/(Pixel*Frame)             : 0.032
Stream size                    : 449 MiB (90%)
Writing library                : x264 core 129 r2245 bc13772

Audio
Format                         : AAC
Bit rate mode                  : Variable
Bit rate                       : 79.8 Kbps
Channel(s)                     : 2 channels
Channel positions              : Front: L R
Sampling rate                  : 48.0 KHz / 24.0 KHz
Stream size                    : 50.6 MiB (10%)

Subtitle                       : Yes (English)

Screens: 
http://imgr.us/images/54kfpj4g9pzvqlz8kd5e.jpg 
http://imgr.us/images/n40hicc5or0vprba6b.jpg 
http://imgr.us/images/hjqrac382ihe9yy1dr0c.jpg 
http://imgr.us/images/shbs667d56vnfed46kdn.jpg

Thumbs: 
http://imgr.us/images/vo5pveimfje6wbss235.jpg
----------------------------------------------------------------------------------------------------
Recommend to you to use latest version of VLC player. Install K-Lite Codec Pack or shark007 codecs
in case of any kind of problem in playback (For non-VLC Media Player users). Alternatively, install
Core AVC codecs, the fastest decoder that there is coupled with Community Center Codec Pack and play
on Windows Media Player Classic. Check sample to be sure.
Enjoy!